<?xml version="1.0" encoding="UTF-8" standalone="no"?>
<!DOCTYPE svg PUBLIC "-//W3C//DTD SVG 1.1//EN"
 "http://www.w3.org/Graphics/SVG/1.1/DTD/svg11.dtd">
<!-- Generated by graphviz version 2.40.1 (20161225.0304)
 -->
<!-- Title: %0 Pages: 1 -->
<svg width="1053pt" height="431pt"
 viewBox="0.00 0.00 1052.85 431.20" xmlns="http://www.w3.org/2000/svg" xmlns:xlink="http://www.w3.org/1999/xlink">
<g id="graph0" class="graph" transform="scale(1 1) rotate(0) translate(4 427.2)">
<title>%0</title>
<polygon fill="#ffffff" stroke="transparent" points="-4,4 -4,-427.2 1048.8507,-427.2 1048.8507,4 -4,4"/>
<!-- go -->
<g id="node1" class="node">
<title>go</title>
<polygon fill="#f0fff0" stroke="#000000" points="397.4706,-337.4016 356.1965,-300.4992 438.7447,-300.4992 397.4706,-337.4016"/>
<text text-anchor="middle" x="397.4706" y="-308.6" font-family="Times,serif" font-size="14.00" fill="#000000">go</text>
</g>
<!-- movebacteria -->
<g id="node5" class="node">
<title>movebacteria</title>
<polygon fill="#f5f5dc" stroke="#000000" points="138.3769,-252 46.5643,-252 46.5643,-216 138.3769,-216 138.3769,-252"/>
<text text-anchor="middle" x="92.4706" y="-229.8" font-family="Times,serif" font-size="14.00" fill="#000000">movebacteria</text>
</g>
<!-- go&#45;&gt;movebacteria -->
<g id="edge5" class="edge">
<title>go&#45;&gt;movebacteria</title>
<path fill="none" stroke="#000000" d="M378.8506,-321C312.6306,-321 92.4706,-321 92.4706,-321 92.4706,-321 92.4706,-262.0265 92.4706,-262.0265"/>
<polygon fill="#000000" stroke="#000000" points="95.9707,-262.0264 92.4706,-252.0265 88.9707,-262.0265 95.9707,-262.0264"/>
</g>
<!-- moveantibiotics -->
<g id="node6" class="node">
<title>moveantibiotics</title>
<polygon fill="#f5f5dc" stroke="#000000" points="273.4035,-252 167.5377,-252 167.5377,-216 273.4035,-216 273.4035,-252"/>
<text text-anchor="middle" x="220.4706" y="-229.8" font-family="Times,serif" font-size="14.00" fill="#000000">moveantibiotics</text>
</g>
<!-- go&#45;&gt;moveantibiotics -->
<g id="edge6" class="edge">
<title>go&#45;&gt;moveantibiotics</title>
<path fill="none" stroke="#000000" d="M359.9335,-304C307.9767,-304 220.4706,-304 220.4706,-304 220.4706,-304 220.4706,-262.0267 220.4706,-262.0267"/>
<polygon fill="#000000" stroke="#000000" points="223.9707,-262.0267 220.4706,-252.0267 216.9707,-262.0268 223.9707,-262.0267"/>
</g>
<!-- doseeachregion -->
<g id="node7" class="node">
<title>doseeachregion</title>
<polygon fill="#f5f5dc" stroke="#000000" points="394.0394,-252 290.9018,-252 290.9018,-216 394.0394,-216 394.0394,-252"/>
<text text-anchor="middle" x="342.4706" y="-229.8" font-family="Times,serif" font-size="14.00" fill="#000000">doseeachregion</text>
</g>
<!-- go&#45;&gt;doseeachregion -->
<g id="edge7" class="edge">
<title>go&#45;&gt;doseeachregion</title>
<path fill="none" stroke="#000000" d="M375.0443,-300.4875C375.0443,-300.4875 375.0443,-262.0783 375.0443,-262.0783"/>
<polygon fill="#000000" stroke="#000000" points="378.5444,-262.0783 375.0443,-252.0783 371.5444,-262.0783 378.5444,-262.0783"/>
</g>
<!-- updatetime -->
<g id="node12" class="node">
<title>updatetime</title>
<polygon fill="#f5f5dc" stroke="#000000" points="490.6771,-252 412.2641,-252 412.2641,-216 490.6771,-216 490.6771,-252"/>
<text text-anchor="middle" x="451.4706" y="-229.8" font-family="Times,serif" font-size="14.00" fill="#000000">updatetime</text>
</g>
<!-- go&#45;&gt;updatetime -->
<g id="edge8" class="edge">
<title>go&#45;&gt;updatetime</title>
<path fill="none" stroke="#000000" d="M425.6125,-300.4875C425.6125,-300.4875 425.6125,-262.0783 425.6125,-262.0783"/>
<polygon fill="#000000" stroke="#000000" points="429.1126,-262.0783 425.6125,-252.0783 422.1126,-262.0783 429.1126,-262.0783"/>
</g>
<!-- updatebacteriacounts -->
<g id="node13" class="node">
<title>updatebacteriacounts</title>
<polygon fill="#f5f5dc" stroke="#000000" points="880.6405,-252 746.3007,-252 746.3007,-216 880.6405,-216 880.6405,-252"/>
<text text-anchor="middle" x="813.4706" y="-229.8" font-family="Times,serif" font-size="14.00" fill="#000000">updatebacteriacounts</text>
</g>
<!-- go&#45;&gt;updatebacteriacounts -->
<g id="edge9" class="edge">
<title>go&#45;&gt;updatebacteriacounts</title>
<path fill="none" stroke="#000000" d="M419.2349,-318C500.5371,-318 781.7987,-318 781.7987,-318 781.7987,-318 781.7987,-262.2267 781.7987,-262.2267"/>
<polygon fill="#000000" stroke="#000000" points="785.2988,-262.2267 781.7987,-252.2267 778.2988,-262.2268 785.2988,-262.2267"/>
</g>
<!-- reproducebacteriaintoavailablespace -->
<g id="node16" class="node">
<title>reproducebacteriaintoavailablespace</title>
<polygon fill="#f5f5dc" stroke="#000000" points="728.1359,-252 508.8053,-252 508.8053,-216 728.1359,-216 728.1359,-252"/>
<text text-anchor="middle" x="618.4706" y="-229.8" font-family="Times,serif" font-size="14.00" fill="#000000">reproducebacteriaintoavailablespace</text>
</g>
<!-- go&#45;&gt;reproducebacteriaintoavailablespace -->
<g id="edge10" class="edge">
<title>go&#45;&gt;reproducebacteriaintoavailablespace</title>
<path fill="none" stroke="#000000" d="M432.9781,-306C495.4496,-306 618.4706,-306 618.4706,-306 618.4706,-306 618.4706,-262.1686 618.4706,-262.1686"/>
<polygon fill="#000000" stroke="#000000" points="621.9707,-262.1686 618.4706,-252.1686 614.9707,-262.1687 621.9707,-262.1686"/>
</g>
<!-- setup -->
<g id="node2" class="node">
<title>setup</title>
<polygon fill="#f0fff0" stroke="#000000" points="939.4706,-423.0016 876.7925,-386.0992 1002.1487,-386.0992 939.4706,-423.0016"/>
<text text-anchor="middle" x="939.4706" y="-394.2" font-family="Times,serif" font-size="14.00" fill="#000000">setup</text>
</g>
<!-- setupinitialbacteria -->
<g id="node3" class="node">
<title>setupinitialbacteria</title>
<polygon fill="#f5f5dc" stroke="#000000" points="939.4891,-330.8 817.4521,-330.8 817.4521,-294.8 939.4891,-294.8 939.4891,-330.8"/>
<text text-anchor="middle" x="878.4706" y="-308.6" font-family="Times,serif" font-size="14.00" fill="#000000">setupinitialbacteria</text>
</g>
<!-- setup&#45;&gt;setupinitialbacteria -->
<g id="edge1" class="edge">
<title>setup&#45;&gt;setupinitialbacteria</title>
<path fill="none" stroke="#000000" d="M908.1806,-385.7694C908.1806,-385.7694 908.1806,-340.862 908.1806,-340.862"/>
<polygon fill="#000000" stroke="#000000" points="911.6807,-340.862 908.1806,-330.862 904.6807,-340.8621 911.6807,-340.862"/>
</g>
<!-- setupregions -->
<g id="node10" class="node">
<title>setupregions</title>
<polygon fill="#f5f5dc" stroke="#000000" points="1044.7311,-330.8 958.2101,-330.8 958.2101,-294.8 1044.7311,-294.8 1044.7311,-330.8"/>
<text text-anchor="middle" x="1001.4706" y="-308.6" font-family="Times,serif" font-size="14.00" fill="#000000">setupregions</text>
</g>
<!-- setup&#45;&gt;setupregions -->
<g id="edge2" class="edge">
<title>setup&#45;&gt;setupregions</title>
<path fill="none" stroke="#000000" d="M980.2,-385.7694C980.2,-385.7694 980.2,-340.862 980.2,-340.862"/>
<polygon fill="#000000" stroke="#000000" points="983.7001,-340.862 980.2,-330.862 976.7001,-340.8621 983.7001,-340.862"/>
</g>
<!-- makebacteria -->
<g id="node11" class="node">
<title>makebacteria</title>
<polygon fill="#f5f5dc" stroke="#000000" points="988.5914,-252 898.3498,-252 898.3498,-216 988.5914,-216 988.5914,-252"/>
<text text-anchor="middle" x="943.4706" y="-229.8" font-family="Times,serif" font-size="14.00" fill="#000000">makebacteria</text>
</g>
<!-- setupinitialbacteria&#45;&gt;makebacteria -->
<g id="edge3" class="edge">
<title>setupinitialbacteria&#45;&gt;makebacteria</title>
<path fill="none" stroke="#000000" d="M918.945,-294.5236C918.945,-294.5236 918.945,-262.1773 918.945,-262.1773"/>
<polygon fill="#000000" stroke="#000000" points="922.4451,-262.1772 918.945,-252.1773 915.4451,-262.1773 922.4451,-262.1772"/>
</g>
<!-- setupinitialbacteria&#45;&gt;updatebacteriacounts -->
<g id="edge4" class="edge">
<title>setupinitialbacteria&#45;&gt;updatebacteriacounts</title>
<path fill="none" stroke="#000000" d="M848.8837,-294.5236C848.8837,-294.5236 848.8837,-262.1773 848.8837,-262.1773"/>
<polygon fill="#000000" stroke="#000000" points="852.3837,-262.1772 848.8837,-252.1773 845.3837,-262.1773 852.3837,-262.1772"/>
</g>
<!-- checkantibioticinteraction -->
<g id="node4" class="node">
<title>checkantibioticinteraction</title>
<polygon fill="#f5f5dc" stroke="#000000" points="314.3639,-180 152.5773,-180 152.5773,-144 314.3639,-144 314.3639,-180"/>
<text text-anchor="middle" x="233.4706" y="-157.8" font-family="Times,serif" font-size="14.00" fill="#000000">checkantibioticinteraction</text>
</g>
<!-- bacteriadeath -->
<g id="node14" class="node">
<title>bacteriadeath</title>
<polygon fill="#f5f5dc" stroke="#000000" points="278.5914,-108 188.3498,-108 188.3498,-72 278.5914,-72 278.5914,-108"/>
<text text-anchor="middle" x="233.4706" y="-85.8" font-family="Times,serif" font-size="14.00" fill="#000000">bacteriadeath</text>
</g>
<!-- checkantibioticinteraction&#45;&gt;bacteriadeath -->
<g id="edge11" class="edge">
<title>checkantibioticinteraction&#45;&gt;bacteriadeath</title>
<path fill="none" stroke="#000000" d="M233.4706,-143.8314C233.4706,-143.8314 233.4706,-118.4133 233.4706,-118.4133"/>
<polygon fill="#000000" stroke="#000000" points="236.9707,-118.4132 233.4706,-108.4133 229.9707,-118.4133 236.9707,-118.4132"/>
</g>
<!-- checkbounceoffwalls -->
<g id="node15" class="node">
<title>checkbounceoffwalls</title>
<polygon fill="#f5f5dc" stroke="#000000" points="134.9118,-180 .0294,-180 .0294,-144 134.9118,-144 134.9118,-180"/>
<text text-anchor="middle" x="67.4706" y="-157.8" font-family="Times,serif" font-size="14.00" fill="#000000">checkbounceoffwalls</text>
</g>
<!-- movebacteria&#45;&gt;checkbounceoffwalls -->
<g id="edge12" class="edge">
<title>movebacteria&#45;&gt;checkbounceoffwalls</title>
<path fill="none" stroke="#000000" d="M90.8545,-215.8314C90.8545,-215.8314 90.8545,-190.4133 90.8545,-190.4133"/>
<polygon fill="#000000" stroke="#000000" points="94.3546,-190.4132 90.8545,-180.4133 87.3546,-190.4133 94.3546,-190.4132"/>
</g>
<!-- moveantibiotics&#45;&gt;checkantibioticinteraction -->
<g id="edge13" class="edge">
<title>moveantibiotics&#45;&gt;checkantibioticinteraction</title>
<path fill="none" stroke="#000000" d="M220.4706,-215.8314C220.4706,-215.8314 220.4706,-190.4133 220.4706,-190.4133"/>
<polygon fill="#000000" stroke="#000000" points="223.9707,-190.4132 220.4706,-180.4133 216.9707,-190.4133 223.9707,-190.4132"/>
</g>
<!-- moveantibiotics&#45;&gt;checkbounceoffwalls -->
<g id="edge14" class="edge">
<title>moveantibiotics&#45;&gt;checkbounceoffwalls</title>
<path fill="none" stroke="#000000" d="M167.5696,-234C155.1596,-234 145.4738,-234 145.4738,-234 145.4738,-234 145.4738,-162 145.4738,-162 145.4738,-162 144.4218,-162 144.4218,-162"/>
<polygon fill="#000000" stroke="#000000" points="144.9539,-158.5001 134.9539,-162 144.9539,-165.5001 144.9539,-158.5001"/>
</g>
<!-- autodose -->
<g id="node8" class="node">
<title>autodose</title>
<polygon fill="#f5f5dc" stroke="#000000" points="398.2354,-180 332.7058,-180 332.7058,-144 398.2354,-144 398.2354,-180"/>
<text text-anchor="middle" x="365.4706" y="-157.8" font-family="Times,serif" font-size="14.00" fill="#000000">autodose</text>
</g>
<!-- doseeachregion&#45;&gt;autodose -->
<g id="edge15" class="edge">
<title>doseeachregion&#45;&gt;autodose</title>
<path fill="none" stroke="#000000" d="M363.2967,-215.8314C363.2967,-215.8314 363.2967,-190.4133 363.2967,-190.4133"/>
<polygon fill="#000000" stroke="#000000" points="366.7968,-190.4132 363.2967,-180.4133 359.7968,-190.4133 366.7968,-190.4132"/>
</g>
<!-- doseregion -->
<g id="node9" class="node">
<title>doseregion</title>
<polygon fill="#f5f5dc" stroke="#000000" points="404.3968,-108 326.5444,-108 326.5444,-72 404.3968,-72 404.3968,-108"/>
<text text-anchor="middle" x="365.4706" y="-85.8" font-family="Times,serif" font-size="14.00" fill="#000000">doseregion</text>
</g>
<!-- autodose&#45;&gt;doseregion -->
<g id="edge16" class="edge">
<title>autodose&#45;&gt;doseregion</title>
<path fill="none" stroke="#000000" d="M365.4706,-143.8314C365.4706,-143.8314 365.4706,-118.4133 365.4706,-118.4133"/>
<polygon fill="#000000" stroke="#000000" points="368.9707,-118.4132 365.4706,-108.4133 361.9707,-118.4133 368.9707,-118.4132"/>
</g>
<!-- makeaantibioticparticle -->
<g id="node17" class="node">
<title>makeaantibioticparticle</title>
<polygon fill="#f5f5dc" stroke="#000000" points="439.3639,-36 291.5773,-36 291.5773,0 439.3639,0 439.3639,-36"/>
<text text-anchor="middle" x="365.4706" y="-13.8" font-family="Times,serif" font-size="14.00" fill="#000000">makeaantibioticparticle</text>
</g>
<!-- doseregion&#45;&gt;makeaantibioticparticle -->
<g id="edge17" class="edge">
<title>doseregion&#45;&gt;makeaantibioticparticle</title>
<path fill="none" stroke="#000000" d="M365.4706,-71.8314C365.4706,-71.8314 365.4706,-46.4133 365.4706,-46.4133"/>
<polygon fill="#000000" stroke="#000000" points="368.9707,-46.4132 365.4706,-36.4133 361.9707,-46.4133 368.9707,-46.4132"/>
</g>
</g>
</svg>

